<?xml version="1.0" encoding="UTF-8"?><svg id="a" xmlns="http://www.w3.org/2000/svg" viewBox="0 0 495.82 168.94"><defs><style>.d{fill:#bc0aa7;}</style></defs><path id="b" d="M149.74,106.42c3.07-3.37,3.81-7.16,4.33-11.03,.18-1.35,.61-2.81-1.29-3.36-1.71-.48-2.7,.71-3.3,1.87-2.08,4.03-2.5,8.1,.26,12.51m-31.73-18.83c6.79-2.41,11.89-5.94,16.71-9.85,11.37-9.21,21.53-19.7,31.12-30.7,5.05-5.79,8.97-12.39,11.06-19.88,.88-3.15,1.3-6.37-.11-9.53-4.36-9.82-19.63-14.9-28.96-9.85-5.27,2.86-9.27,6.93-12.4,11.86-8.48,13.33-12.26,28.38-14.99,43.66-1.37,7.66-1.6,15.53-2.43,24.29m-12.07,53.65c14.31-6.86,27.67-12.61,37.69-23.74,2.86-3.18,4.82-6.35,1.55-10.96-2.4-3.38-2.64-7.88-1.7-12.1,.29-1.33,.77-2.74,1.58-3.8,2.07-2.72,4.96-4.69,8.38-3.94,3.47,.76,4.92,3.83,5.66,7.23,.91,4.16-1.17,7.64-2.48,11.37,7.72-.51,13.44-5.68,15.48-14.17,.7-2.9,.7-5.98,1.08-8.97,.43-3.37,1.27-3.88,4.57-2.78,1.09,.36,2.1,.98,3.17,1.43,10.47,4.32,20.28,1.95,27.11-6.95,1.98-2.59,3.48-1.31,4.21,.23,3.26,6.83,9.13,7.17,15.38,6.6,5.32-.49,10.61-1.25,15.91-1.85,1.39-.16,2.99-.22,3.36,1.56,.37,1.74-1.1,2.41-2.41,2.84-6.66,2.17-13.53,3.44-20.52,3.34-4-.06-7.67-1.69-10.76-4.42-1.27-1.12-2.56-1.8-4.24-.28-9.42,8.45-19.93,6.86-30.74,3.2-1.76,.92-1.22,2.8-1.37,4.26-1.21,12.2-8.53,19.2-19.62,22.63-3.12,.97-4.94,2.42-6.87,5.05-5.04,6.88-10.74,13.01-18.86,16.83-8.16,3.83-15.71,8.95-24.32,11.96-3.63,1.27-5.15,4.39-6.09,7.94-.45,1.69-.93,3.91-3.47,3.61-2.57-.31-3.14-2.51-3.57-4.57-.39-1.89-.2-4.07,1.3-5.21,5.95-4.53,6.52-11.56,8.36-17.85,2.6-8.9,4.48-18,6.6-27.04,.3-1.29,.22-2.68,.29-3.72-1.44-1.29-2.63-.73-3.58-.28-14.39,6.74-29.83,8.17-45.39,9.32-9.89,.73-19.79,1.4-29.25,5.27-7.17,2.93-11.5,8.39-15.55,14.36-6.37,9.38-9.81,19.85-11.55,31-.54,3.48-.7,6.82,.58,10.31-5.32-.63-5.94-1.29-5.85-6.41,.27-14.1,4.83-26.76,12.71-38.4,5.75-8.49,12.48-15.64,22.81-18.24,7.91-1.99,16.01-2.81,24.14-3.1,16.61-.59,32.63-3.84,48.08-10.07,3.49-1.41,5.17-3.56,5.56-7.15,.94-8.76,1.82-17.54,3.03-26.27,2.39-17.24,7.07-33.8,18.45-47.4,12.25-14.64,22.13-15.71,37.69-3.54,14.02,10.96,11.6,23.18,2.95,35.02-11.62,15.9-25.88,29.62-41.13,42.22-3.92,3.23-8.66,4.39-12.96,6.61-2.62,1.35-4.69,2.85-5.28,5.95-2.65,14.04-6.11,27.9-10.14,43.11"/><path id="c" d="M242.27,81.03c.13-1.01,.53-2.02,1.56-1.82,1.65,.32,2.69,1.58,3.07,3.23,.24,1.04-.37,1.83-1.36,1.97-2.59,.37-2.72-1.76-3.27-3.38"/><g><path d="M208.2,104.22c1.24,.07,2.43,.12,3.57,.16,1.14,.04,2.17,.05,3.1,.05,1.07,0,2.16-.02,3.28-.05s2.27-.09,3.44-.16v1.84h-.71c-1.44,0-2.4,.38-2.9,1.14-.5,.76-.75,2.78-.75,6.07v7.73c1.14,.04,2.34,.06,3.61,.08,1.27,.02,3.04,.03,5.32,.03s4.35,0,6.08-.03c1.72-.02,3.48-.04,5.26-.08v-7.31c0-3.48-.25-5.62-.75-6.42-.5-.8-1.47-1.21-2.9-1.21h-.71v-1.84c1.17,.07,2.32,.12,3.45,.16,1.13,.04,2.24,.05,3.32,.05,.93,0,1.95-.02,3.07-.05s2.3-.09,3.54-.16v1.84c-.09,0-.21,0-.37-.03-.16-.02-.27-.03-.34-.03-1.35,0-2.27,.42-2.76,1.27-.49,.85-.73,2.66-.73,5.44,0,.52,0,1.52,.03,2.99,.02,1.47,.03,2.68,.03,3.62v6.98c0,.94,0,2.16-.03,3.63-.02,1.48-.03,2.49-.03,3.03,0,2.87,.25,4.74,.73,5.61,.49,.88,1.41,1.31,2.76,1.31,.24,0,.43,0,.56-.01,.13,0,.25-.01,.35-.01v1.81c-1.38-.07-2.66-.12-3.85-.16s-2.17-.05-2.98-.05c-.95,0-2.01,.02-3.19,.05-1.18,.04-2.45,.09-3.79,.16v-1.84c.11,0,.26,0,.47,.03s.36,.03,.45,.03c1.44,0,2.4-.39,2.9-1.18,.5-.79,.75-2.69,.75-5.7v-8.93h-.34c-4.5-.07-7.79-.11-9.87-.11-1.58,0-3.08,.02-4.52,.05h-.31c-.75,0-1.57,0-2.44,.01s-1.8,.02-2.78,.04v8.35c0,3.36,.25,5.44,.76,6.25,.51,.81,1.49,1.21,2.94,1.21,.09,0,.24,0,.45-.03s.37-.03,.47-.03v1.84c-1.35-.07-2.61-.12-3.79-.16s-2.24-.05-3.19-.05c-.81,0-1.79,.02-2.97,.05s-2.46,.09-3.86,.16v-1.81c.1,0,.22,0,.35,.01s.31,.01,.54,.01c1.37,0,2.29-.44,2.78-1.31,.49-.87,.73-2.75,.73-5.61,0-.54,0-1.55-.03-3.03-.02-1.48-.03-2.69-.03-3.63v-6.98c0-.88,0-1.99,.03-3.34,.02-1.36,.03-2.28,.03-2.77,0-3.03-.25-4.98-.75-5.88-.5-.89-1.44-1.34-2.82-1.34-.05,0-.16,0-.31,.03-.16,.02-.28,.03-.37,.03v-1.84Z"/><path d="M274.07,137.87l.73,1.65c-1.31,.94-2.51,1.68-3.6,2.19-1.09,.52-1.96,.77-2.62,.77-1.12,0-1.96-.33-2.52-.98-.56-.66-.87-1.65-.92-2.98-1.91,1.28-3.49,2.19-4.75,2.74-1.26,.55-2.39,.83-3.39,.83-1.77,0-3.25-.67-4.44-2-1.19-1.33-1.79-2.96-1.79-4.88,0-3.27,3.53-5.74,10.58-7.4,1.66-.38,2.96-.69,3.88-.92,0-.3,0-.73,.03-1.29,.05-1.16,.08-1.91,.08-2.26,0-1.82-.38-3.16-1.13-4.03-.75-.87-1.9-1.3-3.44-1.3s-2.69,.28-3.56,.83c-.87,.55-1.3,1.3-1.3,2.24,0,.09,0,.21,.03,.35,.02,.15,.03,.26,.03,.33,0,.54-.26,.99-.79,1.35s-1.16,.54-1.89,.54c-.63,0-1.09-.11-1.39-.32s-.45-.53-.45-.97c0-1.4,1.18-2.96,3.54-4.69,2.36-1.72,4.8-2.59,7.32-2.59s4.28,.67,5.54,2.01,1.89,3.3,1.89,5.89c0,1.4-.08,3.55-.25,6.46s-.25,5.11-.25,6.62c0,1.14,.13,1.91,.38,2.31s.71,.6,1.35,.6c.28,0,.64-.08,1.09-.25,.45-.17,1.11-.46,1.98-.88Zm-8.95-8.87c-.33,.09-.83,.22-1.5,.39-5.69,1.56-8.53,3.4-8.53,5.51,0,1.16,.37,2.1,1.1,2.82,.73,.73,1.71,1.09,2.91,1.09,.73,0,1.58-.19,2.55-.58,.96-.38,2.08-1,3.36-1.84l.11-7.4Z"/><path d="M284.6,114.85l-.31,4.41c1.98-1.44,3.7-2.48,5.16-3.12s2.8-.97,4.03-.97c2.57,0,4.51,.73,5.8,2.18,1.29,1.45,1.94,3.63,1.94,6.54,0,.02,0,.79-.03,2.31-.02,1.52-.03,3.04-.03,4.57,0,.65,0,1.46-.03,2.43-.02,.97-.03,1.63-.03,1.98,0,1.96,.18,3.24,.53,3.83s1.02,.89,2,.89c.05,0,.15,0,.3-.03s.26-.03,.33-.03v1.84c-1.57-.11-2.77-.17-3.57-.21s-1.48-.05-2.02-.05c-.84,0-1.75,.02-2.73,.07-.98,.04-1.98,.11-2.99,.2l-.03-1.84h.39c2.24,0,3.38-2.05,3.41-6.14,.02-.23,.03-.4,.03-.53l.05-5.64v-.95c0-3.24-.38-5.39-1.13-6.45-.75-1.06-2.05-1.59-3.88-1.59-1.02,0-2.14,.24-3.37,.72-1.23,.48-2.54,1.19-3.93,2.14-.07,1.82-.12,3.54-.16,5.16-.04,1.62-.05,3.08-.05,4.4v3.62c0,2.31,.17,3.77,.51,4.38,.34,.61,1.01,.92,2.01,.92,.07,0,.18,0,.33-.03s.27-.03,.36-.03v1.84c-1.51-.11-2.69-.17-3.56-.21-.87-.04-1.58-.05-2.14-.05-.53,0-1.22,.02-2.07,.05s-2.06,.1-3.6,.21l-.03-1.84h.5c2.19,0,3.29-2.13,3.31-6.38,0-.63,0-1.12,.03-1.47l.05-6.43v-2.6c0-1.71-.13-2.84-.39-3.37-.26-.53-.74-.8-1.44-.8-.14,0-.32,.02-.54,.05s-.45,.09-.7,.16l-.31-1.63c1.31-.25,2.63-.58,3.95-1,1.32-.42,2.67-.93,4.06-1.52Z"/><path d="M331.9,100.99l-.03,.47c-.21,6.21-.38,12.22-.5,18.01l-.05,4.09c-.04,.96-.07,2.25-.09,3.85-.03,1.6-.04,3.36-.04,5.29v1.02c0,2.73,.1,4.42,.29,5.08,.19,.66,.57,.98,1.13,.98,.33,0,.68-.03,1.04-.1,.36-.07,.73-.17,1.12-.32l.42,1.65c-1.22,.47-2.42,.83-3.6,1.06-1.17,.24-2.36,.35-3.54,.35l-.76-.03c-.12-.75-.21-1.45-.28-2.09s-.09-1.25-.09-1.83c-2,1.28-3.64,2.16-4.94,2.65-1.29,.49-2.55,.74-3.78,.74-3.06,0-5.56-1.16-7.48-3.48-1.93-2.32-2.89-5.33-2.89-9.04,0-4.13,1.23-7.46,3.7-10,2.47-2.54,5.67-3.81,9.61-3.81,.89,0,1.83,.08,2.82,.25s2.06,.42,3.21,.77c0-.16,0-.39,.03-.71,.09-3.06,.13-5.82,.13-8.27,0-1.1-.17-1.88-.51-2.34s-.91-.68-1.69-.68c-.18,0-.39,.02-.66,.07s-.62,.11-1.08,.2l-.31-1.71c1.29-.23,2.67-.52,4.12-.88,1.45-.36,3.02-.78,4.7-1.27Zm-4.83,19.14c-1.17-.67-2.28-1.16-3.33-1.47-1.05-.31-2.11-.47-3.17-.47-2.69,0-4.77,.84-6.24,2.52-1.47,1.68-2.2,4.05-2.2,7.11,0,3.26,.72,5.84,2.16,7.76s3.37,2.88,5.78,2.88c.96,0,2-.18,3.11-.55s2.36-.94,3.73-1.71l.16-16.07Z"/><path class="d" d="M360.99,105.34c0,1.3,.07,2.57,.22,3.83,.15,1.26,.38,2.5,.7,3.73l-2.05,.39c-.3-2.17-1.13-3.78-2.51-4.83-1.38-1.05-3.31-1.58-5.81-1.58-2.31,0-4.19,.56-5.63,1.68-1.44,1.12-2.16,2.56-2.16,4.33,0,2.91,3.08,5.39,9.24,7.46,.82,.26,1.45,.47,1.89,.63,2.82,.98,4.89,2.24,6.22,3.77,1.33,1.53,2,3.43,2,5.68,0,3.48-1.32,6.31-3.96,8.47-2.64,2.16-6.14,3.24-10.5,3.24-1.66,0-3.29-.14-4.87-.41-1.58-.27-3.19-.7-4.82-1.27,.02-.17,.03-.38,.04-.62,0-.24,.01-.58,.01-1.04,0-1.24-.07-2.47-.21-3.68-.14-1.21-.35-2.42-.63-3.62l2.36-.55c.3,2.87,1.2,4.97,2.71,6.3,1.5,1.33,3.74,2,6.69,2,2.59,0,4.7-.65,6.33-1.96,1.63-1.3,2.44-2.98,2.44-5.03,0-2.9-2.54-5.16-7.61-6.77-.72-.23-1.28-.41-1.68-.55-3.52-1.14-6.04-2.53-7.56-4.17-1.52-1.64-2.28-3.75-2.28-6.3,0-3.01,1.19-5.52,3.57-7.53,2.38-2.01,5.36-3.02,8.95-3.02,1.31,0,2.64,.1,3.99,.31s2.99,.58,4.94,1.1Z"/><path class="d" d="M375.77,114.85c-.02,.67-.04,1.61-.08,2.83-.23,7.04-.34,11.99-.34,14.86v2.78c0,2.03,.19,3.31,.58,3.83,.38,.53,1.14,.79,2.26,.79,.1,0,.24,0,.42-.03,.17-.02,.3-.03,.39-.03v1.79c-1.49-.11-2.69-.17-3.6-.21s-1.68-.05-2.31-.05c-.56,0-1.27,.02-2.14,.05-.87,.04-2.17,.1-3.9,.21v-1.84h.66c2.17,0,3.26-2.13,3.28-6.41v-1.44l.1-6.48c0-.47,0-1.07,.03-1.79s.03-1.2,.03-1.44c0-1.42-.13-2.35-.41-2.81s-.77-.68-1.48-.68c-.14,0-.35,.01-.62,.04s-.56,.06-.88,.09l-.26-1.65c1.38-.26,2.76-.59,4.13-1,1.37-.4,2.75-.88,4.13-1.42Zm-2.84-12.37l1.87,1.39c.49,.37,.85,.73,1.08,1.1,.23,.37,.34,.75,.34,1.16s-.09,.75-.28,1.04c-.18,.29-.53,.63-1.04,1.01l-1.97,1.5-1.84-1.44c-.51-.4-.88-.77-1.1-1.12-.23-.34-.34-.7-.34-1.09s.09-.72,.26-1.01c.17-.29,.53-.63,1.08-1.04l1.94-1.5Z"/><path class="d" d="M400.87,117c1.17,0,2.36-.02,3.56-.05,1.2-.04,2.4-.09,3.61-.16l-.13,2.62c-.77-.09-1.62-.15-2.53-.2-.92-.04-1.98-.07-3.19-.07,.82,.63,1.45,1.4,1.88,2.3,.43,.9,.64,1.89,.64,2.98,0,2.36-.98,4.39-2.95,6.09-1.97,1.7-4.39,2.55-7.26,2.55-.3,0-.72-.02-1.26-.07-.54-.04-.93-.07-1.15-.09-.47,.32-.92,.64-1.34,.98-.42,.34-.8,.7-1.15,1.06,.26,.49,.56,.94,.91,1.35,.34,.41,.74,.8,1.19,1.17,.54,0,1.32,0,2.34-.03,2.45-.05,4.06-.08,4.83-.08,3.17,0,5.45,.48,6.84,1.44s2.09,2.51,2.09,4.65c0,1.37-.38,2.74-1.14,4.13s-1.83,2.66-3.22,3.82c-1.42,1.17-3.05,2.09-4.9,2.76-1.85,.67-3.68,1-5.5,1-2.71,0-4.98-.72-6.81-2.15-1.83-1.44-2.74-3.18-2.74-5.22,0-1.19,.38-2.36,1.14-3.5,.76-1.15,2.1-2.5,4-4.06-.79-.72-1.44-1.45-1.96-2.21-.52-.75-.93-1.58-1.25-2.47,.63-.59,1.32-1.16,2.07-1.69,.75-.53,1.58-1.06,2.49-1.59-1.77-.56-3.15-1.5-4.15-2.81-1-1.31-1.5-2.83-1.5-4.57,0-2.71,1-5,3.01-6.88,2-1.87,4.51-2.81,7.52-2.81,1.1,0,2.14,.14,3.1,.43,.96,.29,1.94,.74,2.91,1.35Zm-11,24.31c-.86,.96-1.49,1.84-1.89,2.62-.4,.79-.6,1.54-.6,2.26,0,1.63,.73,3,2.19,4.12s3.29,1.68,5.5,1.68c2.5,0,4.67-.7,6.5-2.09,1.83-1.39,2.74-2.95,2.74-4.69,0-1.42-.45-2.42-1.34-2.99-.89-.58-2.61-.87-5.15-.87-.26,0-.84,0-1.73-.03s-1.64-.03-2.26-.03h-3.96Zm4.78-24.15c-1.87,0-3.33,.58-4.36,1.73-1.03,1.16-1.55,2.78-1.55,4.88,0,2.31,.5,4.11,1.51,5.4,1.01,1.29,2.42,1.93,4.24,1.93s3.28-.58,4.33-1.75,1.58-2.77,1.58-4.82c0-2.36-.5-4.18-1.5-5.46-1-1.28-2.41-1.92-4.25-1.92Z"/><path class="d" d="M419.01,114.85l-.31,4.41c1.98-1.44,3.7-2.48,5.16-3.12s2.8-.97,4.03-.97c2.57,0,4.51,.73,5.8,2.18,1.29,1.45,1.94,3.63,1.94,6.54,0,.02,0,.79-.03,2.31-.02,1.52-.03,3.04-.03,4.57,0,.65,0,1.46-.03,2.43-.02,.97-.03,1.63-.03,1.98,0,1.96,.18,3.24,.53,3.83s1.02,.89,2,.89c.05,0,.15,0,.3-.03s.26-.03,.33-.03v1.84c-1.57-.11-2.77-.17-3.57-.21s-1.48-.05-2.02-.05c-.84,0-1.75,.02-2.73,.07-.98,.04-1.98,.11-2.99,.2l-.03-1.84h.39c2.24,0,3.38-2.05,3.41-6.14,.02-.23,.03-.4,.03-.53l.05-5.64v-.95c0-3.24-.38-5.39-1.13-6.45-.75-1.06-2.05-1.59-3.88-1.59-1.02,0-2.14,.24-3.37,.72-1.23,.48-2.54,1.19-3.93,2.14-.07,1.82-.12,3.54-.16,5.16-.04,1.62-.05,3.08-.05,4.4v3.62c0,2.31,.17,3.77,.51,4.38,.34,.61,1.01,.92,2.01,.92,.07,0,.18,0,.33-.03s.27-.03,.36-.03v1.84c-1.51-.11-2.69-.17-3.56-.21-.87-.04-1.58-.05-2.14-.05-.53,0-1.22,.02-2.07,.05s-2.06,.1-3.6,.21l-.03-1.84h.5c2.19,0,3.29-2.13,3.31-6.38,0-.63,0-1.12,.03-1.47l.05-6.43v-2.6c0-1.71-.13-2.84-.39-3.37-.26-.53-.74-.8-1.44-.8-.14,0-.32,.02-.54,.05s-.45,.09-.7,.16l-.31-1.63c1.31-.25,2.63-.58,3.95-1,1.32-.42,2.67-.93,4.06-1.52Z"/><path class="d" d="M464.92,127h-12.81c-1,0-1.92,.02-2.76,.05s-1.62,.09-2.34,.16v.97c0,3.43,.79,6.08,2.38,7.95s3.82,2.81,6.71,2.81c1.28,0,2.54-.21,3.78-.64,1.24-.43,2.56-1.1,3.96-2.01l1.03,1.68c-1.8,1.47-3.6,2.58-5.4,3.33-1.79,.75-3.56,1.13-5.31,1.13-3.4,0-6.2-1.21-8.4-3.64-2.21-2.42-3.31-5.53-3.31-9.33,0-4.04,1.15-7.44,3.46-10.19,2.31-2.75,5.13-4.12,8.45-4.12,3.1,0,5.57,1.03,7.4,3.1,1.84,2.07,2.89,4.98,3.15,8.74Zm-4.86-2.76c-.53-2.15-1.32-3.8-2.39-4.95-1.07-1.15-2.35-1.72-3.83-1.72-1.68,0-3.12,.67-4.32,2.02s-1.98,3.17-2.35,5.46c3.46,0,6.19-.06,8.18-.18,1.99-.12,3.56-.33,4.71-.63Z"/><path class="d" d="M492.54,100.99l-.03,.47c-.21,6.21-.38,12.22-.5,18.01l-.05,4.09c-.04,.96-.07,2.25-.09,3.85-.03,1.6-.04,3.36-.04,5.29v1.02c0,2.73,.1,4.42,.29,5.08,.19,.66,.57,.98,1.13,.98,.33,0,.68-.03,1.04-.1,.36-.07,.73-.17,1.12-.32l.42,1.65c-1.22,.47-2.42,.83-3.6,1.06-1.17,.24-2.36,.35-3.54,.35l-.76-.03c-.12-.75-.21-1.45-.28-2.09s-.09-1.25-.09-1.83c-2,1.28-3.64,2.16-4.94,2.65-1.29,.49-2.55,.74-3.78,.74-3.06,0-5.56-1.16-7.48-3.48-1.93-2.32-2.89-5.33-2.89-9.04,0-4.13,1.23-7.46,3.7-10,2.47-2.54,5.67-3.81,9.61-3.81,.89,0,1.83,.08,2.82,.25s2.06,.42,3.21,.77c0-.16,0-.39,.03-.71,.09-3.06,.13-5.82,.13-8.27,0-1.1-.17-1.88-.51-2.34s-.91-.68-1.69-.68c-.18,0-.39,.02-.66,.07s-.62,.11-1.08,.2l-.31-1.71c1.29-.23,2.67-.52,4.12-.88,1.45-.36,3.02-.78,4.7-1.27Zm-4.83,19.14c-1.17-.67-2.28-1.16-3.33-1.47-1.05-.31-2.11-.47-3.17-.47-2.69,0-4.77,.84-6.24,2.52-1.47,1.68-2.2,4.05-2.2,7.11,0,3.26,.72,5.84,2.16,7.76s3.37,2.88,5.78,2.88c.96,0,2-.18,3.11-.55s2.36-.94,3.73-1.71l.16-16.07Z"/></g></svg>